<svg width="28" height="28" viewBox="0 0 28 28" fill="none" xmlns="http://www.w3.org/2000/svg">
<path d="M3.60034 5.79253C3.62367 5.81586 3.62367 5.85203 3.60034 5.87536C3.577 5.89869 3.54084 5.89869 3.5175 5.87536C3.49417 5.85203 3.49417 5.81586 3.5175 5.79253C3.54084 5.76919 3.57817 5.76919 3.60034 5.79253" stroke="#9D9D9D" stroke-width="1.5" stroke-linecap="round" stroke-linejoin="round"/>
<path d="M7.58447 5.83333H23.3333" stroke="#9D9D9D" stroke-width="1.5" stroke-linecap="round" stroke-linejoin="round"/>
<path d="M3.60034 11.6247C3.62367 11.648 3.62367 11.6842 3.60034 11.7075C3.577 11.7308 3.54084 11.7308 3.5175 11.7075C3.49417 11.6842 3.49417 11.648 3.5175 11.6247C3.54084 11.6013 3.57817 11.6013 3.60034 11.6247" stroke="#9D9D9D" stroke-width="1.5" stroke-linecap="round" stroke-linejoin="round"/>
<path d="M7.58447 11.6655L16.3333 11.6667" stroke="#9D9D9D" stroke-width="1.5" stroke-linecap="round" stroke-linejoin="round"/>
<path d="M3.60034 17.458C3.62367 17.4813 3.62367 17.5175 3.60034 17.5408C3.577 17.5642 3.54084 17.5642 3.5175 17.5408C3.49417 17.5175 3.49417 17.4813 3.5175 17.458C3.54084 17.4347 3.57817 17.4347 3.60034 17.458" stroke="#9D9D9D" stroke-width="1.5" stroke-linecap="round" stroke-linejoin="round"/>
<path d="M7.58447 17.4988L10.5 17.5" stroke="#9D9D9D" stroke-width="1.5" stroke-linecap="round" stroke-linejoin="round"/>
<path d="M17.5712 21.5122C18.2549 22.1958 18.2549 23.3042 17.5712 23.9867C16.8876 24.6703 15.7792 24.6703 15.0967 23.9867C14.4131 23.303 14.4131 22.1947 15.0967 21.5122C15.7792 20.8297 16.8876 20.8297 17.5712 21.5122" stroke="#9D9D9D" stroke-width="1.5" stroke-linecap="round" stroke-linejoin="round"/>
<path d="M23.9877 20.3455C24.6714 21.0292 24.6714 22.1375 23.9877 22.82C23.3041 23.5037 22.1957 23.5037 21.5132 22.82C20.8296 22.1363 20.8296 21.028 21.5132 20.3455C22.1957 19.663 23.3041 19.663 23.9877 20.3455" stroke="#9D9D9D" stroke-width="1.5" stroke-linecap="round" stroke-linejoin="round"/>
<path d="M18.0835 22.75V17.1232C18.0835 16.646 18.374 16.2167 18.8173 16.0405L22.9007 14.4072C23.6672 14.1003 24.5002 14.665 24.5002 15.4898V21.5833" stroke="#9D9D9D" stroke-width="1.5" stroke-linecap="round" stroke-linejoin="round"/>
</svg>
