<svg width="28" height="28" viewBox="0 0 28 28" fill="none" xmlns="http://www.w3.org/2000/svg">
<path d="M9.33337 18.6668L18.6667 9.3335" stroke="#CF1322" stroke-width="1.5" stroke-linecap="round" stroke-linejoin="round"/>
<path fill-rule="evenodd" clip-rule="evenodd" d="M8.30783 23.4745L4.52433 19.691C3.86867 19.0353 3.5 18.1452 3.5 17.2165V10.7835C3.5 9.85483 3.86867 8.96467 4.5255 8.309L8.309 4.5255C8.96467 3.86867 9.85483 3.5 10.7835 3.5H17.2165C18.1452 3.5 19.0353 3.86867 19.691 4.5255L23.4757 8.31017C24.1313 8.96583 24.5 9.856 24.5 10.7847V17.2165C24.5 18.1452 24.1313 19.0342 23.4757 19.691L19.6922 23.4757C19.0353 24.1313 18.1452 24.5 17.2165 24.5H10.7835C9.85483 24.5 8.96467 24.1313 8.30783 23.4745V23.4745Z" stroke="#CF1322" stroke-width="1.5" stroke-linecap="round" stroke-linejoin="round"/>
</svg>
