<svg width="28" height="28" viewBox="0 0 28 28" fill="none" xmlns="http://www.w3.org/2000/svg">
<path d="M14 17.5H8.16667C5.58934 17.5 3.5 19.5893 3.5 22.1667V23.3333" stroke="#9D9D9D" stroke-width="1.5" stroke-linecap="round" stroke-linejoin="round"/>
<path d="M14.1163 24.4418C14.1162 24.474 14.0901 24.5001 14.0579 24.5001C14.0257 24.5 13.9996 24.4739 13.9996 24.4417C13.9996 24.4095 14.0257 24.3834 14.0579 24.3834C14.0901 24.3834 14.1162 24.4095 14.1163 24.4417V24.4418" stroke="#9D9D9D" stroke-width="1.5" stroke-linecap="round" stroke-linejoin="round"/>
<path d="M10.6163 24.4418C10.6162 24.474 10.5901 24.5001 10.5579 24.5001C10.5257 24.5 10.4996 24.4739 10.4996 24.4417C10.4996 24.4095 10.5257 24.3834 10.5579 24.3834C10.5901 24.3834 10.6162 24.4095 10.6163 24.4417V24.4418" stroke="#9D9D9D" stroke-width="1.5" stroke-linecap="round" stroke-linejoin="round"/>
<ellipse cx="12.8337" cy="8.16667" rx="4.66667" ry="4.66667" stroke="#9D9D9D" stroke-width="1.5" stroke-linecap="round" stroke-linejoin="round"/>
<path fill-rule="evenodd" clip-rule="evenodd" d="M19.7849 24.4417H18.0833C17.7612 24.4417 17.5 24.1805 17.5 23.8583V22.1567C17.5 21.8473 17.6229 21.5506 17.8417 21.3318L21.3901 17.7834C21.6089 17.5646 21.9057 17.4417 22.2151 17.4417C22.5245 17.4417 22.8213 17.5646 23.04 17.7834L24.1583 18.9016C24.6139 19.3572 24.6139 20.0959 24.1583 20.5515L20.6098 24.1C20.391 24.3188 20.0943 24.4417 19.7849 24.4417Z" stroke="#9D9D9D" stroke-width="1.5" stroke-linecap="round" stroke-linejoin="round"/>
</svg>
