<svg width="28" height="28" viewBox="0 0 28 28" fill="none" xmlns="http://www.w3.org/2000/svg">
<path d="M12.0354 12.5415V11.0062C12.0354 9.92117 12.9151 9.0415 14.0001 9.0415C15.0851 9.0415 15.9647 9.92117 15.9647 11.0062V12.5415" stroke="#F2F2F2" stroke-width="1.5" stroke-linecap="round" stroke-linejoin="round"/>
<path fill-rule="evenodd" clip-rule="evenodd" d="M16.3333 18.3748H11.6667C11.0227 18.3748 10.5 17.8522 10.5 17.2082V13.7082C10.5 13.0642 11.0227 12.5415 11.6667 12.5415H16.3333C16.9773 12.5415 17.5 13.0642 17.5 13.7082V17.2082C17.5 17.8522 16.9773 18.3748 16.3333 18.3748Z" stroke="#F2F2F2" stroke-width="1.5" stroke-linecap="round" stroke-linejoin="round"/>
<path d="M4.47888 5.55908V8.74758H7.66855" stroke="#F2F2F2" stroke-width="1.5" stroke-linecap="round" stroke-linejoin="round"/>
<path d="M23.093 8.75583C21.2765 5.61633 17.8896 3.5 14.0023 3.5C10.1185 3.5 6.73515 5.614 4.91748 8.74883" stroke="#F2F2F2" stroke-width="1.5" stroke-linecap="round" stroke-linejoin="round"/>
<path d="M24.4125 12.6865C24.696 14.8845 24.2947 17.1875 23.1 19.256C21.1564 22.623 17.6295 24.4967 14.0024 24.5002L13.9954 24.4944C10.3682 24.4909 6.84137 22.6172 4.89771 19.2502C3.70421 17.184 3.30404 14.8822 3.58521 12.6865" stroke="#F2F2F2" stroke-width="1.5" stroke-linecap="round" stroke-linejoin="round"/>
</svg>
