<?xml version="1.0" encoding="utf-8"?>
<!-- Generator: Adobe Illustrator 28.0.0, SVG Export Plug-In . SVG Version: 6.00 Build 0)  -->
<svg version="1.1" id="Layer_1" xmlns="http://www.w3.org/2000/svg" xmlns:xlink="http://www.w3.org/1999/xlink" x="0px" y="0px"
	 viewBox="0 0 124 124" style="enable-background:new 0 0 124 124;" xml:space="preserve">
<style type="text/css">
	.st0{fill:#FFFFFF;}
</style>
<g>
	<path class="st0" d="M40.34,55.28c1.25,0.66,2.21,1.6,2.88,2.79c0.67,1.2,1.01,2.56,1.01,4.1c0,1.52-0.34,2.88-1.02,4.08
		c-0.68,1.2-1.64,2.13-2.89,2.81c-1.25,0.68-2.69,1.02-4.34,1.02h-6.25v-15.8h6.25C37.64,54.28,39.09,54.61,40.34,55.28z
		 M38.67,65.16c0.73-0.71,1.1-1.71,1.1-2.99c0-1.3-0.37-2.3-1.1-3.01c-0.73-0.71-1.74-1.06-3.03-1.06h-1.52v8.14h1.52
		C36.93,66.23,37.94,65.87,38.67,65.16z"/>
	<path class="st0" d="M60.84,70.08h-4.39l-5.85-8.83v8.83H46.2v-15.8h4.39l5.85,8.94v-8.94h4.39V70.08z"/>
	<path class="st0" d="M63.79,57.99c0.65-1.22,1.57-2.17,2.77-2.85c1.2-0.68,2.57-1.02,4.12-1.02c1.97,0,3.63,0.53,4.98,1.58
		c1.34,1.05,2.21,2.48,2.6,4.29h-4.73c-0.28-0.58-0.68-1.03-1.18-1.34c-0.5-0.31-1.08-0.47-1.74-0.47c-1.02,0-1.83,0.36-2.43,1.08
		c-0.61,0.72-0.91,1.68-0.91,2.89c0,1.21,0.3,2.18,0.91,2.9c0.61,0.72,1.42,1.09,2.43,1.09c0.66,0,1.24-0.16,1.74-0.47
		c0.5-0.31,0.89-0.76,1.18-1.34h4.73c-0.39,1.81-1.26,3.24-2.6,4.29c-1.34,1.05-3,1.58-4.98,1.58c-1.55,0-2.93-0.34-4.12-1.02
		c-1.2-0.68-2.12-1.63-2.77-2.85c-0.65-1.22-0.97-2.61-0.97-4.18C62.81,60.59,63.14,59.21,63.79,57.99z"/>
	<path class="st0" d="M89.69,70.08l-4.95-6.93v6.93h-4.39v-15.8h4.39v6.81l4.91-6.81h5.07l-5.81,7.67l6.1,8.14H89.69z"/>
</g>
</svg>
