<svg width="28" height="28" viewBox="0 0 28 28" fill="none" xmlns="http://www.w3.org/2000/svg">
<path fill-rule="evenodd" clip-rule="evenodd" d="M24.3676 8.2716C23.7236 5.33261 21.0289 3.30513 18.0265 3.50062C15.0242 3.69611 12.6151 6.05591 12.3576 9.05359C12.337 9.38896 12.4651 9.71639 12.7078 9.94879L18.0522 15.2932C18.2841 15.5358 18.6112 15.6639 18.9462 15.6433C20.6914 15.4912 22.2866 14.5951 23.3245 13.1839C24.3624 11.7726 24.7425 9.98284 24.3676 8.2716V8.2716Z" stroke="#9D9D9D" stroke-width="1.5" stroke-linecap="round" stroke-linejoin="round"/>
<path d="M18.0663 15.3107L8.01248 22.9123C7.45975 23.3284 6.68522 23.2746 6.19522 22.7863L5.21481 21.807C4.72566 21.3168 4.67239 20.5411 5.08993 19.9886L12.6904 9.93475" stroke="#9D9D9D" stroke-width="1.5" stroke-linecap="round" stroke-linejoin="round"/>
<path d="M5.70386 22.2961L3.49561 24.5043" stroke="#9D9D9D" stroke-width="1.5" stroke-linecap="round" stroke-linejoin="round"/>
</svg>
