<svg width="28" height="28" viewBox="0 0 28 28" fill="none" xmlns="http://www.w3.org/2000/svg">
<path fill-rule="evenodd" clip-rule="evenodd" d="M11.0145 8.81769L15.5435 11.4964C16.1163 11.8347 16.1163 12.6642 15.5435 13.0025L11.0145 15.6812C10.4312 16.0265 9.69385 15.6054 9.69385 14.9275V9.57135C9.69385 8.89352 10.4312 8.47235 11.0145 8.81769V8.81769Z" stroke="#9D9D9D" stroke-width="1.5" stroke-linecap="round" stroke-linejoin="round"/>
<path fill-rule="evenodd" clip-rule="evenodd" d="M19.0552 21H5.44483C4.37033 21 3.5 20.1297 3.5 19.0552V5.44483C3.5 4.37033 4.37033 3.5 5.44483 3.5H19.0563C20.1297 3.5 21 4.37033 21 5.44483V19.0563C21 20.1297 20.1297 21 19.0552 21V21Z" stroke="#9D9D9D" stroke-width="1.5" stroke-linecap="round" stroke-linejoin="round"/>
<path d="M7 21V22.1667V22.1667C7 23.4558 8.04417 24.5 9.33333 24.5H22.1667C23.4558 24.5 24.5 23.4558 24.5 22.1667V9.33333C24.5 8.04417 23.4558 7 22.1667 7H21" stroke="#9D9D9D" stroke-width="1.5" stroke-linecap="round" stroke-linejoin="round"/>
</svg>
