<svg width="28" height="28" viewBox="0 0 28 28" fill="none" xmlns="http://www.w3.org/2000/svg">
<path d="M10.3837 8.86669C11.317 9.80002 11.317 11.2 10.3837 12.1334C9.45033 13.0667 8.05033 13.0667 7.11699 12.1334C6.18366 11.2 6.18366 9.80002 7.11699 8.86669C8.05033 7.93335 9.45033 7.93335 10.3837 8.86669" stroke="#9D9D9D" stroke-width="1.5" stroke-linecap="round" stroke-linejoin="round"/>
<path d="M20.7667 7.81667C21.9334 8.98334 21.9334 10.85 20.7667 11.9C19.6001 12.95 17.7334 13.0667 16.6834 11.9C15.6334 10.7333 15.5167 8.86667 16.6834 7.81667C17.7334 6.76667 19.6001 6.76667 20.7667 7.81667" stroke="#9D9D9D" stroke-width="1.5" stroke-linecap="round" stroke-linejoin="round"/>
<path d="M23.917 21V19.8333C23.917 17.85 22.4003 16.3333 20.417 16.3333H16.917C14.9337 16.3333 13.417 17.85 13.417 19.8333V21" stroke="#9D9D9D" stroke-width="1.5" stroke-linecap="round" stroke-linejoin="round"/>
<path d="M9.91683 16.3333H7.5835C5.60016 16.3333 4.0835 17.85 4.0835 19.8333V21" stroke="#9D9D9D" stroke-width="1.5" stroke-linecap="round" stroke-linejoin="round"/>
</svg>
